<svg width="617" height="533" viewBox="0 0 617 533" fill="none" xmlns="http://www.w3.org/2000/svg">
<path d="M71.5075 339.228C32.0416 339.228 0 306.618 0 266.451C0 226.285 32.0416 194.072 71.1167 194.072C110.192 194.072 142.233 226.683 142.233 266.451C142.233 306.22 110.973 339.228 71.5075 339.228ZM440.377 0C387.625 0 385.281 45.3365 304.786 45.3365C223.51 45.3365 216.867 0 168.805 0C129.339 0 97.6878 32.6105 97.6878 72.3794C97.6878 112.148 129.729 144.759 168.805 144.759C221.947 144.759 224.291 99.4222 304.786 99.4222C386.062 99.4222 392.705 144.759 440.767 144.759C480.233 144.759 511.884 112.148 511.884 72.3794C511.884 32.6105 479.843 0 440.377 0ZM440.377 387.747C387.235 387.747 384.89 433.083 304.395 433.083C223.119 433.083 216.476 387.747 168.414 387.747C128.948 387.747 97.2971 420.357 97.2971 460.126C97.2971 499.895 129.339 532.505 168.414 532.505C221.556 532.505 223.901 487.169 304.395 487.169C385.672 487.169 392.314 532.505 440.377 532.505C479.843 532.505 511.493 499.895 511.493 460.126C511.493 420.357 479.843 387.747 440.377 387.747ZM545.88 194.072C492.347 194.072 494.3 241.795 427.091 241.795C364.962 241.795 364.18 194.47 304.395 194.47C267.274 194.47 236.795 229.069 236.795 266.849C236.795 304.63 267.665 339.228 307.912 339.228C361.445 339.228 359.491 291.506 426.7 291.506C488.83 291.506 489.611 338.831 549.396 338.831C586.518 338.831 616.996 304.232 616.996 266.451C617.387 228.671 586.518 194.072 545.88 194.072Z" fill="#1955FF"/>
</svg>
