<svg width="401" height="214" viewBox="0 0 401 214" fill="none" xmlns="http://www.w3.org/2000/svg">
<g clip-path="url(#clip0_40_120)">
<mask id="mask0_40_120" style="mask-type:luminance" maskUnits="userSpaceOnUse" x="-87" y="118" width="409" height="67">
<path fill-rule="evenodd" clip-rule="evenodd" d="M321.79 184.278H-86.6358L-86.6358 163.969C-79.3566 168.975 -73.5303 175.409 -61.8835 172.55C-50.2338 169.691 -56.0572 167.545 -45.8663 167.545C-35.6724 167.545 -32.7608 159.677 -19.6582 158.964C-6.55264 158.248 -2.18512 131.792 6.55291 131.792C15.2879 131.792 14.56 118.919 37.1285 128.216C59.7 137.511 71.3468 156.105 80.8127 156.105C90.2757 156.105 96.6509 140.337 108.939 141.544C121.224 142.751 112.844 169.691 123.766 169.691C134.685 169.691 145.607 153.959 150.702 153.959C155.797 153.959 162.352 170.404 171.815 168.261C181.281 166.115 182.736 153.959 189.288 153.959C195.842 153.959 196.57 178.272 208.217 178.272C219.866 178.272 229.329 161.823 232.969 161.823C236.612 161.823 243.163 183.277 253.354 182.561C263.548 181.847 263.425 144.017 272.178 142.358C290.358 138.914 285.388 120.349 295.582 118.919C305.773 117.49 317.853 167.545 317.853 167.545L321.79 184.278Z" fill="white"/>
</mask>
<g mask="url(#mask0_40_120)">
<rect opacity="0.35" x="17.3272" y="115.917" width="277.235" height="74.3056" fill="url(#paint0_linear_40_120)"/>
</g>
<mask id="mask1_40_120" style="mask-type:luminance" maskUnits="userSpaceOnUse" x="17" y="115" width="278" height="76">
<rect x="17.3272" y="115.917" width="277.235" height="74.3056" fill="white"/>
</mask>
<g mask="url(#mask1_40_120)">
<g filter="url(#filter0_b_40_120)">
<path fill-rule="evenodd" clip-rule="evenodd" d="M-86.965 196.29V165.715C-86.965 164.758 -86.5417 163.881 -85.8561 163.399C-85.1655 162.921 -84.3189 162.918 -83.6308 163.393C-82.4773 164.187 -81.3584 165.013 -80.247 165.839C-74.4276 170.149 -69.3977 173.873 -60.4322 171.674C-55.3924 170.437 -53.9221 169.385 -52.8454 168.618C-51.0037 167.302 -49.771 166.612 -43.9689 166.612C-39.5604 166.612 -36.6643 164.978 -33.3127 163.078C-29.4661 160.9 -25.1021 158.433 -17.8593 158.037C-11.8146 157.704 -7.74276 150.479 -3.80454 143.488C-0.148509 136.997 3.30702 130.859 8.45071 130.859C10.7181 130.859 12.1191 129.777 14.0598 128.279C18.3569 124.957 23.706 120.822 39.7485 127.429C51.8899 132.429 60.8629 139.981 68.071 146.05C74.1281 151.145 78.9128 155.172 82.71 155.172C86.2769 155.172 89.4923 152.313 93.2152 149.005C98.0272 144.728 103.47 139.904 111.018 140.62C119.102 141.417 120.218 150.999 121.033 157.99C121.973 166.071 122.775 168.758 125.664 168.758C131.439 168.758 137.635 163.456 142.612 159.194C146.64 155.749 149.821 153.026 152.6 153.026C155.548 153.026 158.118 156.013 161.091 159.47C164.69 163.658 168.757 168.393 173.301 167.376C177.49 166.428 179.878 163.078 182.188 159.836C184.574 156.489 187.042 153.026 191.185 153.026C195.413 153.026 197.515 158.427 199.74 164.139C202.748 171.87 205.255 177.339 210.114 177.339C216.763 177.339 222.926 170.996 227.424 166.363C230.625 163.069 232.738 160.894 234.867 160.894C237.357 160.894 239.184 163.958 241.944 168.595C245.311 174.251 249.934 181.958 255.123 181.634C258.875 181.369 261.373 170.904 263.38 162.493C265.833 152.221 268.148 142.516 273.73 141.461C282.943 139.717 285.356 133.903 287.69 128.282C289.628 123.616 291.633 118.792 297.22 118.007C297.436 117.975 297.651 117.96 297.866 117.96C308.817 117.96 318.991 156.527 321.892 168.544C321.931 168.708 321.956 168.874 321.968 169.041L323.991 195.059L319.52 195.11L317.552 169.793C311.183 143.509 302.354 122.808 297.738 123.319C294.686 123.75 293.562 126.134 291.678 130.669C289.242 136.533 285.906 144.567 274.423 146.743C271.65 147.272 269.44 156.527 267.663 163.967C265.021 175.038 262.286 186.49 255.383 186.975C247.709 187.528 242.288 178.376 238.318 171.707C237.127 169.703 235.523 167.011 234.721 166.306C233.922 166.725 231.857 168.847 230.323 170.426C225.298 175.603 218.411 182.692 210.114 182.692C202.042 182.692 198.527 173.662 195.703 166.404C194.312 162.829 192.577 158.379 191.185 158.379C189.19 158.379 187.821 160.163 185.571 163.316C183.027 166.889 179.856 171.335 174.126 172.637C167.338 174.168 162.153 168.152 157.992 163.313C156.1 161.117 153.744 158.379 152.6 158.379C151.244 158.379 148.033 161.128 145.199 163.551C139.704 168.256 132.862 174.111 125.664 174.111C118.411 174.111 117.416 165.584 116.619 158.733C115.644 150.351 114.738 146.357 110.656 145.955C104.775 145.361 100.453 149.231 95.8687 153.303C91.8736 156.851 87.7447 160.525 82.71 160.525C77.5069 160.525 72.2147 156.07 65.514 150.428C58.5336 144.555 49.8478 137.244 38.3029 132.491C24.3051 126.722 20.1416 129.941 16.4707 132.776C14.2875 134.465 12.0275 136.212 8.45071 136.212C5.67342 136.212 2.86146 141.203 -0.116336 146.484C-4.45803 154.194 -9.37646 162.93 -17.6588 163.384C-24.0105 163.726 -27.7754 165.857 -31.4141 167.917C-34.9291 169.908 -38.5628 171.965 -43.9689 171.965C-48.818 171.965 -49.4393 172.411 -50.5705 173.217C-51.9171 174.177 -53.7637 175.499 -59.5411 176.914C-70.2022 179.527 -76.4648 174.926 -82.5095 170.449V196.29H-86.965Z" fill="white" fill-opacity="0.34" style="mix-blend-mode:plus-lighter"/>
<path fill-rule="evenodd" clip-rule="evenodd" d="M-86.965 196.29V165.715C-86.965 164.758 -86.5417 163.881 -85.8561 163.399C-85.1655 162.921 -84.3189 162.918 -83.6308 163.393C-82.4773 164.187 -81.3584 165.013 -80.247 165.839C-74.4276 170.149 -69.3977 173.873 -60.4322 171.674C-55.3924 170.437 -53.9221 169.385 -52.8454 168.618C-51.0037 167.302 -49.771 166.612 -43.9689 166.612C-39.5604 166.612 -36.6643 164.978 -33.3127 163.078C-29.4661 160.9 -25.1021 158.433 -17.8593 158.037C-11.8146 157.704 -7.74276 150.479 -3.80454 143.488C-0.148509 136.997 3.30702 130.859 8.45071 130.859C10.7181 130.859 12.1191 129.777 14.0598 128.279C18.3569 124.957 23.706 120.822 39.7485 127.429C51.8899 132.429 60.8629 139.981 68.071 146.05C74.1281 151.145 78.9128 155.172 82.71 155.172C86.2769 155.172 89.4923 152.313 93.2152 149.005C98.0272 144.728 103.47 139.904 111.018 140.62C119.102 141.417 120.218 150.999 121.033 157.99C121.973 166.071 122.775 168.758 125.664 168.758C131.439 168.758 137.635 163.456 142.612 159.194C146.64 155.749 149.821 153.026 152.6 153.026C155.548 153.026 158.118 156.013 161.091 159.47C164.69 163.658 168.757 168.393 173.301 167.376C177.49 166.428 179.878 163.078 182.188 159.836C184.574 156.489 187.042 153.026 191.185 153.026C195.413 153.026 197.515 158.427 199.74 164.139C202.748 171.87 205.255 177.339 210.114 177.339C216.763 177.339 222.926 170.996 227.424 166.363C230.625 163.069 232.738 160.894 234.867 160.894C237.357 160.894 239.184 163.958 241.944 168.595C245.311 174.251 249.934 181.958 255.123 181.634C258.875 181.369 261.373 170.904 263.38 162.493C265.833 152.221 268.148 142.516 273.73 141.461C282.943 139.717 285.356 133.903 287.69 128.282C289.628 123.616 291.633 118.792 297.22 118.007C297.436 117.975 297.651 117.96 297.866 117.96C308.817 117.96 318.991 156.527 321.892 168.544C321.931 168.708 321.956 168.874 321.968 169.041L323.991 195.059L319.52 195.11L317.552 169.793C311.183 143.509 302.354 122.808 297.738 123.319C294.686 123.75 293.562 126.134 291.678 130.669C289.242 136.533 285.906 144.567 274.423 146.743C271.65 147.272 269.44 156.527 267.663 163.967C265.021 175.038 262.286 186.49 255.383 186.975C247.709 187.528 242.288 178.376 238.318 171.707C237.127 169.703 235.523 167.011 234.721 166.306C233.922 166.725 231.857 168.847 230.323 170.426C225.298 175.603 218.411 182.692 210.114 182.692C202.042 182.692 198.527 173.662 195.703 166.404C194.312 162.829 192.577 158.379 191.185 158.379C189.19 158.379 187.821 160.163 185.571 163.316C183.027 166.889 179.856 171.335 174.126 172.637C167.338 174.168 162.153 168.152 157.992 163.313C156.1 161.117 153.744 158.379 152.6 158.379C151.244 158.379 148.033 161.128 145.199 163.551C139.704 168.256 132.862 174.111 125.664 174.111C118.411 174.111 117.416 165.584 116.619 158.733C115.644 150.351 114.738 146.357 110.656 145.955C104.775 145.361 100.453 149.231 95.8687 153.303C91.8736 156.851 87.7447 160.525 82.71 160.525C77.5069 160.525 72.2147 156.07 65.514 150.428C58.5336 144.555 49.8478 137.244 38.3029 132.491C24.3051 126.722 20.1416 129.941 16.4707 132.776C14.2875 134.465 12.0275 136.212 8.45071 136.212C5.67342 136.212 2.86146 141.203 -0.116336 146.484C-4.45803 154.194 -9.37646 162.93 -17.6588 163.384C-24.0105 163.726 -27.7754 165.857 -31.4141 167.917C-34.9291 169.908 -38.5628 171.965 -43.9689 171.965C-48.818 171.965 -49.4393 172.411 -50.5705 173.217C-51.9171 174.177 -53.7637 175.499 -59.5411 176.914C-70.2022 179.527 -76.4648 174.926 -82.5095 170.449V196.29H-86.965Z" fill="white" fill-opacity="0.84"/>
</g>
</g>
<path opacity="0.3" d="M19.8025 189.293L381.196 190.717" stroke="white" stroke-width="2" stroke-linecap="round" stroke-linejoin="round" stroke-dasharray="3.5 5.5"/>
</g>
<g filter="url(#filter1_dd_40_120)">
<rect x="287" y="111" width="14" height="14" rx="7" fill="white"/>
</g>
<defs>
<filter id="filter0_b_40_120" x="-222.879" y="-17.9542" width="682.784" height="350.158" filterUnits="userSpaceOnUse" color-interpolation-filters="sRGB">
<feFlood flood-opacity="0" result="BackgroundImageFix"/>
<feGaussianBlur in="BackgroundImageFix" stdDeviation="67.957"/>
<feComposite in2="SourceAlpha" operator="in" result="effect1_backgroundBlur_40_120"/>
<feBlend mode="normal" in="SourceGraphic" in2="effect1_backgroundBlur_40_120" result="shape"/>
</filter>
<filter id="filter1_dd_40_120" x="261" y="85" width="66" height="66" filterUnits="userSpaceOnUse" color-interpolation-filters="sRGB">
<feFlood flood-opacity="0" result="BackgroundImageFix"/>
<feColorMatrix in="SourceAlpha" type="matrix" values="0 0 0 0 0 0 0 0 0 0 0 0 0 0 0 0 0 0 127 0" result="hardAlpha"/>
<feMorphology radius="10" operator="dilate" in="SourceAlpha" result="effect1_dropShadow_40_120"/>
<feOffset/>
<feGaussianBlur stdDeviation="8"/>
<feComposite in2="hardAlpha" operator="out"/>
<feColorMatrix type="matrix" values="0 0 0 0 1 0 0 0 0 1 0 0 0 0 1 0 0 0 0.2 0"/>
<feBlend mode="luminosity" in2="BackgroundImageFix" result="effect1_dropShadow_40_120"/>
<feColorMatrix in="SourceAlpha" type="matrix" values="0 0 0 0 0 0 0 0 0 0 0 0 0 0 0 0 0 0 127 0" result="hardAlpha"/>
<feMorphology radius="10" operator="dilate" in="SourceAlpha" result="effect2_dropShadow_40_120"/>
<feOffset/>
<feGaussianBlur stdDeviation="8"/>
<feComposite in2="hardAlpha" operator="out"/>
<feColorMatrix type="matrix" values="0 0 0 0 0.368627 0 0 0 0 0.368627 0 0 0 0 0.368627 0 0 0 0.4 0"/>
<feBlend mode="color-dodge" in2="effect1_dropShadow_40_120" result="effect2_dropShadow_40_120"/>
<feBlend mode="normal" in="SourceGraphic" in2="effect2_dropShadow_40_120" result="shape"/>
</filter>
<linearGradient id="paint0_linear_40_120" x1="17.3272" y1="115.917" x2="17.3272" y2="190.222" gradientUnits="userSpaceOnUse">
<stop stop-color="white"/>
<stop offset="1" stop-color="white" stop-opacity="0.01"/>
</linearGradient>
<clipPath id="clip0_40_120">
<rect width="401" height="214" fill="white"/>
</clipPath>
</defs>
</svg>
